{
  "accessors": [
    {
      "bufferView": 2,
      "componentType": 5126,
      "count": 65532,
      "max": [
        0.20079107582569122,
        0.9944388270378113,
        0.0678231418132782
      ],
      "min": [
        -0.19881409406661987,
        -0.9829419851303101,
        -0.0704851895570755
      ],
      "type": "VEC3"
    },
    {
      "bufferView": 2,
      "byteOffset": 786384,
      "componentType": 5126,
      "count": 65532,
      "max": [
        0.9999926686286926,
        0.9846060276031494,
        0.9999977350234985
      ],
      "min": [
        -0.9999971985816956,
        -0.9999814629554749,
        -0.9999999403953552
      ],
      "type": "VEC3"
    },
    {
      "bufferView": 1,
      "componentType": 5126,
      "count": 65532,
      "max": [
        0.9984149932861328,
        0.9984890222549438
      ],
      "min": [
        0.0026103900745511055,
        0.002284290036186576
      ],
      "type": "VEC2"
    },
    {
      "bufferView": 0,
      "componentType": 5125,
      "count": 281910,
      "type": "SCALAR"
    },
    {
      "bufferView": 2,
      "byteOffset": 1572768,
      "componentType": 5126,
      "count": 65532,
      "max": [
        0.1996629685163498,
        0.994785726070404,
        0.06761778146028519
      ],
      "min": [
        -0.19930268824100494,
        -0.981322705745697,
        -0.07456095516681671
      ],
      "type": "VEC3"
    },
    {
      "bufferView": 2,
      "byteOffset": 2359152,
      "componentType": 5126,
      "count": 65532,
      "max": [
        0.9999948740005493,
        0.9976431727409363,
        0.9999518990516663
      ],
      "min": [
        -0.9999979734420776,
        -0.988103985786438,
        -0.9999997019767761
      ],
      "type": "VEC3"
    },
    {
      "bufferView": 1,
      "byteOffset": 524256,
      "componentType": 5126,
      "count": 65532,
      "max": [
        0.9974791407585144,
        0.9994730949401855
      ],
      "min": [
        0.000519158027600497,
        0.0012300701346248388
      ],
      "type": "VEC2"
    },
    {
      "bufferView": 0,
      "byteOffset": 1127640,
      "componentType": 5125,
      "count": 281751,
      "type": "SCALAR"
    },
    {
      "bufferView": 2,
      "byteOffset": 3145536,
      "componentType": 5126,
      "count": 65532,
      "max": [
        0.2012045681476593,
        0.9897722005844116,
        0.06656449288129807
      ],
      "min": [
        -0.19955626130104065,
        -0.9839904308319092,
        -0.07385137677192688
      ],
      "type": "VEC3"
    },
    {
      "bufferView": 2,
      "byteOffset": 3931920,
      "componentType": 5126,
      "count": 65532,
      "max": [
        0.9999967217445374,
        0.9783003330230713,
        0.9999996423721313
      ],
      "min": [
        -0.9999993443489075,
        -0.9497162699699402,
        -0.9999996423721313
      ],
      "type": "VEC3"
    },
    {
      "bufferView": 1,
      "byteOffset": 1048512,
      "componentType": 5126,
      "count": 65532,
      "max": [
        0.9999709725379944,
        0.9999701380729675
      ],
      "min": [
        0.00024865902378223836,
        0.00036986006307415664
      ],
      "type": "VEC2"
    },
    {
      "bufferView": 0,
      "byteOffset": 2254644,
      "componentType": 5125,
      "count": 281043,
      "type": "SCALAR"
    },
    {
      "bufferView": 2,
      "byteOffset": 4718304,
      "componentType": 5126,
      "count": 65532,
      "max": [
        0.19823616743087769,
        0.9948305487632751,
        0.06439629942178726
      ],
      "min": [
        -0.19930973649024963,
        -0.9852489829063416,
        -0.07456095516681671
      ],
      "type": "VEC3"
    },
    {
      "bufferView": 2,
      "byteOffset": 5504688,
      "componentType": 5126,
      "count": 65532,
      "max": [
        0.999972403049469,
        0.995762050151825,
        0.9999875426292419
      ],
      "min": [
        -0.9999995231628418,
        -0.9845320582389832,
        -1.0
      ],
      "type": "VEC3"
    },
    {
      "bufferView": 1,
      "byteOffset": 1572768,
      "componentType": 5126,
      "count": 65532,
      "max": [
        0.9974370002746582,
        0.9993460178375244
      ],
      "min": [
        0.0006555779837071896,
        6.928569928277284e-05
      ],
      "type": "VEC2"
    },
    {
      "bufferView": 0,
      "byteOffset": 3378816,
      "componentType": 5125,
      "count": 280806,
      "type": "SCALAR"
    },
    {
      "bufferView": 2,
      "byteOffset": 6291072,
      "componentType": 5126,
      "count": 65532,
      "max": [
        0.201083242893219,
        0.9924237728118896,
        0.06572286784648895
      ],
      "min": [
        -0.19825075566768646,
        -0.9538177847862244,
        -0.07451087981462479
      ],
      "type": "VEC3"
    },
    {
      "bufferView": 2,
      "byteOffset": 7077456,
      "componentType": 5126,
      "count": 65532,
      "max": [
        0.9999982118606567,
        0.9757259488105774,
        0.9999765753746033
      ],
      "min": [
        -0.9999871253967285,
        -0.996402382850647,
        -0.9999999403953552
      ],
      "type": "VEC3"
    },
    {
      "bufferView": 1,
      "byteOffset": 2097024,
      "componentType": 5126,
      "count": 65532,
      "max": [
        0.9999709725379944,
        0.9997701048851013
      ],
      "min": [
        0.0016115299658849835,
        0.0010203701676800847
      ],
      "type": "VEC2"
    },
    {
      "bufferView": 0,
      "byteOffset": 4502040,
      "componentType": 5125,
      "count": 281025,
      "type": "SCALAR"
    },
    {
      "bufferView": 2,
      "byteOffset": 7863840,
      "componentType": 5126,
      "count": 65532,
      "max": [
        0.19948765635490417,
        0.9950194358825684,
        0.06770941615104675
      ],
      "min": [
        -0.19795291125774384,
        -0.9717375636100769,
        -0.0731128677725792
      ],
      "type": "VEC3"
    },
    {
      "bufferView": 2,
      "byteOffset": 8650224,
      "componentType": 5126,
      "count": 65532,
      "max": [
        0.9999966025352478,
        0.9999991059303284,
        0.9999479055404663
      ],
      "min": [
        -0.9999993443489075,
        -0.9979909062385559,
        -0.9999952912330627
      ],
      "type": "VEC3"
    },
    {
      "bufferView": 1,
      "byteOffset": 2621280,
      "componentType": 5126,
      "count": 65532,
      "max": [
        0.9963560104370117,
        0.999403178691864
      ],
      "min": [
        0.000859889027196914,
        0.0010257201502099633
      ],
      "type": "VEC2"
    },
    {
      "bufferView": 0,
      "byteOffset": 5626140,
      "componentType": 5125,
      "count": 281040,
      "type": "SCALAR"
    },
    {
      "bufferView": 2,
      "byteOffset": 9436608,
      "componentType": 5126,
      "count": 65532,
      "max": [
        0.1998346447944641,
        0.9923033714294434,
        0.06787391752004623
      ],
      "min": [
        -0.19961723685264587,
        -0.97740638256073,
        -0.07374683022499084
      ],
      "type": "VEC3"
    },
    {
      "bufferView": 2,
      "byteOffset": 10222992,
      "componentType": 5126,
      "count": 65532,
      "max": [
        0.9999999403953552,
        0.9815236330032349,
        0.9999969005584717
      ],
      "min": [
        -0.9999990463256836,
        -0.9999094605445862,
        -0.9999991655349731
      ],
      "type": "VEC3"
    },
    {
      "bufferView": 1,
      "byteOffset": 3145536,
      "componentType": 5126,
      "count": 65532,
      "max": [
        0.9983391165733337,
        0.9994001388549805
      ],
      "min": [
        0.0016224300488829613,
        6.928569928277284e-05
      ],
      "type": "VEC2"
    },
    {
      "bufferView": 0,
      "byteOffset": 6750300,
      "componentType": 5125,
      "count": 280752,
      "type": "SCALAR"
    },
    {
      "bufferView": 2,
      "byteOffset": 11009376,
      "componentType": 5126,
      "count": 65534,
      "max": [
        0.20119185745716095,
        0.9924689531326294,
        0.06767309457063675
      ],
      "min": [
        -0.19961723685264587,
        -0.9727908968925476,
        -0.07412869483232498
      ],
      "type": "VEC3"
    },
    {
      "bufferView": 2,
      "byteOffset": 11795784,
      "componentType": 5126,
      "count": 65534,
      "max": [
        0.9999843239784241,
        0.9805813431739807,
        0.9999997019767761
      ],
      "min": [
        -0.9999970197677612,
        -0.9998205304145813,
        -0.9999991059303284
      ],
      "type": "VEC3"
    },
    {
      "bufferView": 1,
      "byteOffset": 3669792,
      "componentType": 5126,
      "count": 65534,
      "max": [
        0.9986590147018433,
        0.9992871284484863
      ],
      "min": [
        0.00021106803615111858,
        0.0016072900034487247
      ],
      "type": "VEC2"
    },
    {
      "bufferView": 0,
      "byteOffset": 7873308,
      "componentType": 5125,
      "count": 280179,
      "type": "SCALAR"
    },
    {
      "bufferView": 2,
      "byteOffset": 12582192,
      "componentType": 5126,
      "count": 65532,
      "max": [
        0.19942593574523926,
        0.9923033714294434,
        0.06656449288129807
      ],
      "min": [
        -0.19936935603618622,
        -0.9859961867332458,
        -0.07274267822504044
      ],
      "type": "VEC3"
    },
    {
      "bufferView": 2,
      "byteOffset": 13368576,
      "componentType": 5126,
      "count": 65532,
      "max": [
        0.9999985098838806,
        0.9825401902198792,
        0.9999963045120239
      ],
      "min": [
        -0.9999987483024597,
        -0.9988497495651245,
        -0.9999995827674866
      ],
      "type": "VEC3"
    },
    {
      "bufferView": 1,
      "byteOffset": 4194064,
      "componentType": 5126,
      "count": 65532,
      "max": [
        0.9989821314811707,
        0.9998480081558228
      ],
      "min": [
        0.0026303401682525873,
        8.107120811473578e-05
      ],
      "type": "VEC2"
    },
    {
      "bufferView": 0,
      "byteOffset": 8994024,
      "componentType": 5125,
      "count": 279873,
      "type": "SCALAR"
    },
    {
      "bufferView": 2,
      "byteOffset": 14154960,
      "componentType": 5126,
      "count": 65532,
      "max": [
        0.20063242316246033,
        0.9940431118011475,
        0.06746691465377808
      ],
      "min": [
        -0.19954054057598114,
        -0.9815300107002258,
        -0.07312608510255814
      ],
      "type": "VEC3"
    },
    {
      "bufferView": 2,
      "byteOffset": 14941344,
      "componentType": 5126,
      "count": 65532,
      "max": [
        0.9999935626983643,
        0.9854048490524292,
        0.9999942779541016
      ],
      "min": [
        -0.9999976754188538,
        -0.999362587928772,
        -0.9999996423721313
      ],
      "type": "VEC3"
    },
    {
      "bufferView": 1,
      "byteOffset": 4718320,
      "componentType": 5126,
      "count": 65532,
      "max": [
        0.9994141459465027,
        0.999406099319458
      ],
      "min": [
        0.0025882699992507696,
        0.00018451499636285007
      ],
      "type": "VEC2"
    },
    {
      "bufferView": 0,
      "byteOffset": 10113516,
      "componentType": 5125,
      "count": 279645,
      "type": "SCALAR"
    },
    {
      "bufferView": 2,
      "byteOffset": 15727728,
      "componentType": 5126,
      "count": 16900,
      "max": [
        0.20110662281513214,
        0.9949480295181274,
        0.061013467609882355
      ],
      "min": [
        -0.19760029017925262,
        -0.9816386103630066,
        -0.07451087981462479
      ],
      "type": "VEC3"
    },
    {
      "bufferView": 2,
      "byteOffset": 15930528,
      "componentType": 5126,
      "count": 16900,
      "max": [
        0.9999926090240479,
        0.9971573352813721,
        0.9999533295631409
      ],
      "min": [
        -0.999987781047821,
        -0.956002414226532,
        -0.9999682903289795
      ],
      "type": "VEC3"
    },
    {
      "bufferView": 1,
      "byteOffset": 5242576,
      "componentType": 5126,
      "count": 16900,
      "max": [
        0.9952149987220764,
        0.9873960018157959
      ],
      "min": [
        0.002604879904538393,
        0.00018451499636285007
      ],
      "type": "VEC2"
    },
    {
      "bufferView": 0,
      "byteOffset": 11232096,
      "componentType": 5125,
      "count": 71976,
      "type": "SCALAR"
    }
  ],
  "asset": {
    "extras": {
      "author": "bigdowsey (https://sketchfab.com/bigdowsey)",
      "license": "CC-BY-4.0 (http://creativecommons.org/licenses/by/4.0/)",
      "source": "https://sketchfab.com/3d-models/kitty-backrooms-entity-8aa2afeaa1b645fa8f29542eef09d3b9",
      "title": "Kitty - Backrooms Entity"
    },
    "generator": "Sketchfab-16.71.0",
    "version": "2.0"
  },
  "bufferViews": [
    {
      "buffer": 0,
      "byteLength": 11520000,
      "name": "floatBufferViews",
      "target": 34963
    },
    {
      "buffer": 0,
      "byteLength": 5377776,
      "byteOffset": 11520000,
      "byteStride": 8,
      "name": "floatBufferViews",
      "target": 34962
    },
    {
      "buffer": 0,
      "byteLength": 16133328,
      "byteOffset": 16897776,
      "byteStride": 12,
      "name": "floatBufferViews",
      "target": 34962
    }
  ],
  "buffers": [
    {
      "byteLength": 33031104,
      "uri": "scene.bin"
    }
  ],
  "images": [
    {
      "uri": "textures/Material.001_baseColor.png"
    }
  ],
  "materials": [
    {
      "doubleSided": true,
      "name": "Material.001",
      "pbrMetallicRoughness": {
        "baseColorTexture": {
          "index": 0
        },
        "metallicFactor": 0.0,
        "roughnessFactor": 0.8211145618000169
      }
    }
  ],
  "meshes": [
    {
      "name": "temp_Material.001_0",
      "primitives": [
        {
          "attributes": {
            "NORMAL": 1,
            "POSITION": 0,
            "TEXCOORD_0": 2
          },
          "indices": 3,
          "material": 0,
          "mode": 4
        }
      ]
    },
    {
      "name": "temp_Material.001_0",
      "primitives": [
        {
          "attributes": {
            "NORMAL": 5,
            "POSITION": 4,
            "TEXCOORD_0": 6
          },
          "indices": 7,
          "material": 0,
          "mode": 4
        }
      ]
    },
    {
      "name": "temp_Material.001_0",
      "primitives": [
        {
          "attributes": {
            "NORMAL": 9,
            "POSITION": 8,
            "TEXCOORD_0": 10
          },
          "indices": 11,
          "material": 0,
          "mode": 4
        }
      ]
    },
    {
      "name": "temp_Material.001_0",
      "primitives": [
        {
          "attributes": {
            "NORMAL": 13,
            "POSITION": 12,
            "TEXCOORD_0": 14
          },
          "indices": 15,
          "material": 0,
          "mode": 4
        }
      ]
    },
    {
      "name": "temp_Material.001_0",
      "primitives": [
        {
          "attributes": {
            "NORMAL": 17,
            "POSITION": 16,
            "TEXCOORD_0": 18
          },
          "indices": 19,
          "material": 0,
          "mode": 4
        }
      ]
    },
    {
      "name": "temp_Material.001_0",
      "primitives": [
        {
          "attributes": {
            "NORMAL": 21,
            "POSITION": 20,
            "TEXCOORD_0": 22
          },
          "indices": 23,
          "material": 0,
          "mode": 4
        }
      ]
    },
    {
      "name": "temp_Material.001_0",
      "primitives": [
        {
          "attributes": {
            "NORMAL": 25,
            "POSITION": 24,
            "TEXCOORD_0": 26
          },
          "indices": 27,
          "material": 0,
          "mode": 4
        }
      ]
    },
    {
      "name": "temp_Material.001_0",
      "primitives": [
        {
          "attributes": {
            "NORMAL": 29,
            "POSITION": 28,
            "TEXCOORD_0": 30
          },
          "indices": 31,
          "material": 0,
          "mode": 4
        }
      ]
    },
    {
      "name": "temp_Material.001_0",
      "primitives": [
        {
          "attributes": {
            "NORMAL": 33,
            "POSITION": 32,
            "TEXCOORD_0": 34
          },
          "indices": 35,
          "material": 0,
          "mode": 4
        }
      ]
    },
    {
      "name": "temp_Material.001_0",
      "primitives": [
        {
          "attributes": {
            "NORMAL": 37,
            "POSITION": 36,
            "TEXCOORD_0": 38
          },
          "indices": 39,
          "material": 0,
          "mode": 4
        }
      ]
    },
    {
      "name": "temp_Material.001_0",
      "primitives": [
        {
          "attributes": {
            "NORMAL": 41,
            "POSITION": 40,
            "TEXCOORD_0": 42
          },
          "indices": 43,
          "material": 0,
          "mode": 4
        }
      ]
    }
  ],
  "nodes": [
    {
      "children": [
        1
      ],
      "matrix": [
        1.0,
        0.0,
        0.0,
        0.0,
        0.0,
        2.220446049250313e-16,
        -1.0,
        0.0,
        0.0,
        1.0,
        2.220446049250313e-16,
        0.0,
        0.0,
        0.0,
        0.0,
        1.0
      ],
      "name": "Sketchfab_model"
    },
    {
      "children": [
        2
      ],
      "matrix": [
        0.009999999776482582,
        0.0,
        0.0,
        0.0,
        0.0,
        0.0,
        0.009999999776482582,
        0.0,
        0.0,
        -0.009999999776482582,
        0.0,
        0.0,
        0.0,
        0.0,
        0.0,
        1.0
      ],
      "name": "d8129150aa48422b9f19a8567bd5fd52.fbx"
    },
    {
      "children": [
        3
      ],
      "name": "RootNode"
    },
    {
      "children": [
        4,
        5,
        6,
        7,
        8,
        9,
        10,
        11,
        12,
        13,
        14
      ],
      "matrix": [
        100.0,
        0.0,
        0.0,
        0.0,
        0.0,
        99.99999999999972,
        -7.5497901264043296e-06,
        0.0,
        0.0,
        7.5497901264043296e-06,
        99.99999999999972,
        0.0,
        0.0,
        97.68917846679688,
        0.0,
        1.0
      ],
      "name": "temp"
    },
    {
      "mesh": 0,
      "name": "temp_Material.001_0"
    },
    {
      "mesh": 1,
      "name": "temp_Material.001_0"
    },
    {
      "mesh": 2,
      "name": "temp_Material.001_0"
    },
    {
      "mesh": 3,
      "name": "temp_Material.001_0"
    },
    {
      "mesh": 4,
      "name": "temp_Material.001_0"
    },
    {
      "mesh": 5,
      "name": "temp_Material.001_0"
    },
    {
      "mesh": 6,
      "name": "temp_Material.001_0"
    },
    {
      "mesh": 7,
      "name": "temp_Material.001_0"
    },
    {
      "mesh": 8,
      "name": "temp_Material.001_0"
    },
    {
      "mesh": 9,
      "name": "temp_Material.001_0"
    },
    {
      "mesh": 10,
      "name": "temp_Material.001_0"
    }
  ],
  "samplers": [
    {
      "magFilter": 9729,
      "minFilter": 9987,
      "wrapS": 10497,
      "wrapT": 10497
    }
  ],
  "scene": 0,
  "scenes": [
    {
      "name": "Sketchfab_Scene",
      "nodes": [
        0
      ]
    }
  ],
  "textures": [
    {
      "sampler": 0,
      "source": 0
    }
  ]
}
